<svg id="visual" viewBox="0 0 900 600" width="900" height="600" xmlns="http://www.w3.org/2000/svg" xmlns:xlink="http://www.w3.org/1999/xlink" version="1.1"><rect x="0" y="0" width="900" height="600" fill="#FDB2BC"></rect><path d="M0 451L21.5 449.3C43 447.7 86 444.3 128.8 427C171.7 409.7 214.3 378.3 257.2 351.8C300 325.3 343 303.7 385.8 296.3C428.7 289 471.3 296 514.2 296.7C557 297.3 600 291.7 642.8 283C685.7 274.3 728.3 262.7 771.2 273.3C814 284 857 317 878.5 333.5L900 350L900 601L878.5 601C857 601 814 601 771.2 601C728.3 601 685.7 601 642.8 601C600 601 557 601 514.2 601C471.3 601 428.7 601 385.8 601C343 601 300 601 257.2 601C214.3 601 171.7 601 128.8 601C86 601 43 601 21.5 601L0 601Z" fill="#F4F3F5" stroke-linecap="round" stroke-linejoin="miter"></path></svg>